<?xml version="1.0" standalone="no"?>
<!DOCTYPE svg PUBLIC "-//W3C//DTD SVG 20010904//EN"
 "http://www.w3.org/TR/2001/REC-SVG-20010904/DTD/svg10.dtd">
<svg version="1.0" xmlns="http://www.w3.org/2000/svg"
 width="512.000000pt" height="512.000000pt" viewBox="0 0 512.000000 512.000000"
 preserveAspectRatio="xMidYMid meet">
<metadata>
Created by potrace 1.14, written by Peter Selinger 2001-2017
</metadata>
<g transform="translate(0.000000,512.000000) scale(0.100000,-0.100000)"
fill="#000000" stroke="none">
<path d="M1275 4784 c-88 -52 -159 -98 -158 -103 1 -5 28 -54 59 -108 32 -54
65 -111 74 -128 9 -16 65 -113 123 -214 59 -101 107 -186 107 -188 0 -3 8 -17
19 -31 10 -15 30 -47 43 -72 14 -25 47 -81 72 -125 l46 -80 -41 -35 c-39 -32
-170 -163 -194 -193 -103 -127 -199 -294 -246 -425 -11 -31 -23 -64 -26 -72
-7 -18 -6 -15 -32 -120 -12 -47 -21 -97 -21 -111 l0 -26 -537 -1 c-296 0 -544
-1 -551 -1 -10 -1 -12 -43 -10 -192 l3 -192 547 0 546 0 7 -51 c4 -28 8 -58
10 -66 2 -8 6 -26 9 -39 16 -71 55 -179 101 -276 99 -211 202 -345 398 -517
l37 -33 -119 -205 c-65 -113 -189 -326 -274 -474 l-156 -269 22 -17 c12 -9 51
-33 87 -52 36 -20 100 -57 144 -82 43 -26 80 -46 81 -44 2 2 103 176 225 388
123 212 244 422 271 468 27 45 49 86 49 90 0 5 -28 22 -62 38 -65 30 -221 125
-250 151 -16 14 -15 17 6 52 13 20 93 158 178 306 86 149 203 352 261 451
l105 182 -560 -1 c-405 0 -562 3 -571 12 -15 15 -15 347 0 362 8 8 168 12 567
12 306 0 556 3 556 7 0 5 -53 100 -118 212 -65 111 -130 223 -144 248 -59 106
-281 486 -290 497 -13 16 75 80 209 150 60 31 110 58 112 59 2 2 -19 43 -47
91 -27 49 -59 104 -70 123 -11 19 -60 105 -110 190 -49 85 -103 178 -118 206
-90 159 -200 344 -204 343 -3 0 -77 -43 -165 -95z"/>
<path d="M3580 4712 c-52 -92 -96 -173 -98 -179 -2 -7 -8 -13 -13 -13 -5 0 -9
-4 -9 -9 0 -5 -64 -119 -141 -253 -180 -308 -191 -329 -187 -332 2 -2 38 -20
81 -41 62 -30 178 -100 241 -146 8 -6 -31 -75 -391 -696 -89 -156 -163 -284
-163 -286 0 -3 253 -4 563 -3 559 1 562 1 561 21 -2 40 -36 181 -61 255 -58
166 -137 312 -241 445 -60 76 -185 204 -226 231 -32 20 -32 34 -3 82 20 31
115 195 204 352 11 19 44 76 73 125 29 50 80 137 113 195 33 58 68 119 78 135
42 69 50 88 42 95 -9 9 -320 190 -325 190 -2 0 -46 -76 -98 -168z"/>
<path d="M2370 4025 c-41 -7 -91 -15 -110 -18 -35 -6 -165 -44 -228 -67 -23
-9 -31 -17 -28 -27 4 -8 46 -83 94 -167 49 -83 169 -290 267 -461 97 -170 183
-316 190 -323 9 -10 15 -5 31 25 10 20 36 66 57 101 22 36 47 79 57 96 9 18
86 151 170 297 84 145 161 278 170 294 10 17 32 54 49 84 18 29 30 59 28 65
-7 17 -209 79 -302 92 -16 2 -41 6 -55 10 -51 11 -317 10 -390 -1z"/>
<path d="M4060 2752 l-25 -3 0 -184 c0 -101 -3 -186 -7 -190 -4 -4 -257 -7
-563 -7 -305 -1 -557 -4 -560 -7 -2 -4 16 -40 41 -80 24 -40 44 -74 44 -76 0
-1 29 -52 64 -113 36 -61 76 -131 89 -154 72 -129 310 -534 317 -542 16 -16
198 162 283 277 149 202 273 500 282 682 0 7 183 11 525 12 289 1 535 2 548 2
l22 1 0 193 0 192 -518 0 c-284 0 -528 -1 -542 -3z"/>
<path d="M2527 2113 c-19 -32 -44 -74 -54 -93 -11 -19 -71 -123 -133 -230 -63
-107 -123 -213 -136 -235 -12 -22 -63 -111 -114 -198 -50 -87 -90 -160 -88
-162 9 -10 117 -47 185 -64 207 -53 401 -61 635 -26 103 16 298 78 298 95 0
10 -103 191 -131 231 -10 14 -16 28 -13 31 2 3 -2 11 -11 18 -8 7 -15 19 -15
26 0 8 -4 14 -10 14 -5 0 -10 4 -10 9 0 6 -39 76 -86 158 -48 81 -100 173
-117 203 -16 30 -33 60 -37 65 -4 6 -17 27 -29 48 -39 69 -58 102 -78 135
l-21 33 -35 -58z"/>
<path d="M3375 1329 c-38 -26 -108 -67 -155 -90 -47 -23 -86 -43 -88 -45 -2
-1 38 -74 89 -161 51 -87 100 -171 108 -188 14 -25 58 -102 101 -175 5 -8 37
-64 72 -124 35 -60 70 -120 78 -135 9 -14 33 -56 54 -93 20 -37 41 -70 45 -73
5 -2 29 9 55 25 26 17 49 30 52 30 3 0 28 15 57 33 29 18 68 41 89 51 20 11
46 27 58 36 22 16 21 18 -251 488 -151 260 -278 471 -284 471 -5 -1 -41 -23
-80 -50z"/>
</g>
</svg>
