<svg width="152" height="20" viewBox="0 0 152 20" fill="none" xmlns="http://www.w3.org/2000/svg">
<g clip-path="url(#clip0_21_226)">
<path d="M43.403 0.527832H50.1652L55.6166 14.736L61.0234 0.527832H67.5473V19.4721H63.2129V4.98531L57.5678 19.4721H53.1143L47.4693 5.07329V19.4721H43.4179V0.527832H43.403Z" fill="#007BFB"/>
<path d="M95.8471 0.527832H110.757V19.4721H106.139V4.5161H100.062C100.018 7.17006 99.9432 10.7478 99.8687 12.7419C99.7048 17.7126 98.2303 19.4721 93.9108 19.4721H91.8405V15.4838H92.9873C94.9385 15.4838 95.5641 14.6187 95.6982 11.9208C95.8024 9.01757 95.8471 3.26977 95.8471 0.527832Z" fill="#007BFB"/>
<path d="M134.335 0.527832H151.866V4.5161H145.387V19.4721H140.814V4.5161H134.335V0.527832Z" fill="#007BFB"/>
<path d="M31.4575 0.131958H29.8042C25.8422 0.131958 22.8335 2.50732 22.1484 6.04105L26.3635 6.70087C26.9444 5.01466 28.2701 3.87096 29.9383 3.79765C30.251 3.78298 30.5787 3.78298 30.8915 3.79765C33.3789 3.88562 34.5109 5.05864 34.5109 7.96187C29.7893 7.96187 26.5721 7.74193 24.1889 9.28152C22.2526 10.5425 21.4185 11.9355 21.4185 14.1349C21.4185 17.3314 23.9357 19.8534 28.002 19.8534H28.568C31.4426 19.8534 33.7662 18.7537 34.7046 17.4193V19.4575H38.9495V8.04985C38.9644 3.65102 36.5664 0.131958 31.4575 0.131958ZM28.8658 16.1584C27.0636 16.1144 26.021 15.0733 26.021 13.783C26.021 12.7126 26.5125 12.1701 27.1679 11.8035C27.853 11.4076 28.7467 11.2757 30.117 11.2317C31.4426 11.1877 32.515 11.129 34.5854 11.129C34.5854 14.3548 32.515 15.9824 29.9532 16.1584C29.5957 16.173 29.2382 16.173 28.8658 16.1584Z" fill="#007BFB"/>
<path d="M133.262 11.2757V9.50148C133.262 3.38711 129.36 0.234619 124.326 0.234619H123.343C117.921 0.234619 114.465 3.87098 114.287 9.00295C114.257 9.75075 114.257 10.0733 114.287 11.0997C114.406 16.2024 118.055 19.6481 122.911 19.7801C123.804 19.8094 123.685 19.8094 124.519 19.7801C128.749 19.6628 131.952 17.2581 132.905 14.1202L128.809 13.4164C127.811 15.3812 125.905 16.1437 124.37 16.217C124.028 16.2317 123.685 16.2317 123.328 16.217C120.93 16.1144 118.8 14.2815 118.8 11.5983V11.305L133.262 11.2757ZM123.268 3.79767C123.641 3.76834 124.028 3.76834 124.415 3.79767C126.426 3.90031 128.541 5.19063 128.749 7.74195H118.844C119.068 5.45456 120.93 3.92963 123.268 3.79767Z" fill="#007BFB"/>
<path d="M90.5744 8.32846C90.4702 3.73902 86.7167 0.234619 81.7568 0.234619H79.9545C74.9946 0.234619 71.2412 3.75368 71.1369 8.35779C71.1071 9.63345 71.1071 10.3812 71.1369 11.6569C71.2412 16.261 74.9946 19.7801 79.9545 19.7801H81.7568C86.7167 19.7801 90.4702 16.2757 90.5744 11.6569C90.5893 10.3666 90.5893 9.60412 90.5744 8.32846ZM86.0316 11.4076C85.972 14.0909 84.0059 15.9091 81.3397 16.0411C81.0121 16.0704 80.6844 16.0704 80.3567 16.0411C77.6757 15.9091 75.7245 14.0909 75.6649 11.4076C75.6351 10.2933 75.6351 9.66277 75.6649 8.5484C75.7245 5.89444 77.6757 4.07626 80.3567 3.9443C80.6844 3.91497 81.0121 3.91497 81.3397 3.9443C84.0059 4.07626 85.9869 5.89444 86.0316 8.57773C86.0613 9.6921 86.0613 10.3079 86.0316 11.4076Z" fill="#007BFB"/>
<path d="M14.2691 12.7859C13.7329 14.5455 12.303 15.7478 10.3667 16.0117C9.84541 16.0851 9.3241 16.0851 8.81768 16.0117C6.41964 15.6892 4.73654 13.915 4.67696 11.4223C4.64718 10.3079 4.64718 9.67744 4.67696 8.56307C4.73654 6.05573 6.50901 4.22289 8.95173 3.95896C9.35389 3.91497 9.74115 3.91497 10.1433 3.95896C12.1988 4.1789 13.7329 5.39591 14.2989 7.22875L18.7673 6.37831C17.7992 2.78594 14.4925 0.234619 10.2625 0.234619H8.98152C4.0067 0.234619 0.253251 3.73902 0.148988 8.34312C0.134094 9.61878 0.134094 10.3666 0.148988 11.6422C0.253251 16.2464 4.00671 19.7654 8.96663 19.7654H10.2476C14.567 19.7654 17.9034 17.1115 18.7822 13.3871L14.2691 12.7859Z" fill="#007BFB"/>
</g>
<defs>
<clipPath id="clip0_21_226">
<rect width="152" height="20" fill="white"/>
</clipPath>
</defs>
</svg>
