<svg width="445" height="90" viewBox="0 0 445 90" fill="none" xmlns="http://www.w3.org/2000/svg">
<path d="M21.2422 3.93013L31.284 21.6157L37.8498 18.0786L27.4218 0.393013L21.2422 3.93013Z" fill="black"/>
<path d="M69.9063 0L59.8645 18.0786C61.7956 19.3886 65.7351 22.0087 66.0441 22.0087C66.353 22.0087 72.8673 9.95633 76.0858 3.93013L69.9063 0Z" fill="black"/>
<path d="M97.7143 41.2664H76.8583V48.7336H97.7143V41.2664Z" fill="black"/>
<path d="M76.8583 86.0699L66.4303 67.9913L59.8645 71.9214L69.9063 90L76.8583 86.0699Z" fill="black"/>
<path d="M27.4218 90L37.8498 71.9214L31.6702 67.9913L21.2422 86.0699L27.4218 90Z" fill="black"/>
<path d="M0 49.1266H20.4698V41.2664H0V49.1266Z" fill="black"/>
<ellipse cx="48.6641" cy="44.8036" rx="28.5805" ry="29.083" fill="black"/>
<path d="M37.8499 18.4716L32.0565 22.0087L42.0983 41.2663H20.8561V49.1266H42.0983L32.0565 67.2052L37.8499 71.1353L48.6641 53.0567L59.4783 71.1353L66.0441 67.2052L55.2299 49.1266H76.4721V41.2663H55.2299L66.0441 22.0087L59.8646 18.4716L48.6641 37.3362L37.8499 18.4716Z" fill="white"/>
<path d="M147.867 27.5862L139.771 47.3348L131.624 27.5862H124.07L138.635 60.7638H140.857L155.372 27.5862H147.867Z" fill="black"/>
<path d="M159.822 60.1713H166.487V27.5862H159.822V60.1713Z" fill="black"/>
<path d="M175.726 60.7638C181.947 60.7638 185.65 57.8015 185.65 51.482V27.5862H178.985V50.7908C178.985 53.7037 177.454 54.6911 174.294 54.6911C173.455 54.6911 172.369 54.5924 171.036 54.4936V60.1713C172.418 60.5169 173.998 60.7638 175.726 60.7638Z" fill="black"/>
<path d="M206.666 60.7638C214.565 60.7638 220.49 55.4317 220.49 46.6929V27.5862H213.825V47.1866C213.825 52.0744 210.764 54.5924 206.666 54.5924C202.617 54.5924 199.507 52.0744 199.507 47.1866V27.5862H192.842V46.6929C192.842 55.4317 198.717 60.7638 206.666 60.7638Z" fill="black"/>
<path d="M257.595 39.6H251.439V28.584H257.595V29.8029H252.828V33.2434H257.318V34.4469H252.828V38.3812H257.595V39.6Z" fill="black"/>
<path d="M265.968 31.3303V38.4583H267.171V42.4697H265.86V39.6H260.105V42.4697H258.809V38.4583H259.472C260.182 37.4812 260.712 36.3703 261.062 35.1257C261.422 33.8709 261.607 32.6057 261.617 31.3303H265.968ZM262.82 32.3949C262.779 33.0943 262.671 33.8194 262.496 34.5703C262.322 35.3109 262.095 36.0206 261.818 36.6994C261.55 37.3783 261.236 37.9646 260.876 38.4583H264.656V32.3949H262.82Z" fill="black"/>
<path d="M270.073 36.3754C270.073 36.4989 270.068 36.684 270.057 36.9309C270.047 37.1777 270.032 37.4246 270.011 37.6714C270.001 37.9183 269.99 38.1137 269.98 38.2577L274.408 31.3303H276.074V39.6H274.809V34.7246C274.809 34.56 274.809 34.344 274.809 34.0766C274.82 33.8092 274.83 33.5469 274.84 33.2897C274.85 33.0223 274.861 32.8217 274.871 32.688L270.474 39.6H268.792V31.3303H270.073V36.3754Z" fill="black"/>
<path d="M280.064 31.3303V34.7709H284.554V31.3303H285.911V39.6H284.554V35.9126H280.064V39.6H278.706V31.3303H280.064Z" fill="black"/>
<path d="M288.53 39.6V31.3303H289.888V34.7246H292.032C293.102 34.7246 293.894 34.92 294.408 35.3109C294.922 35.7017 295.18 36.288 295.18 37.0697C295.18 37.8412 294.928 38.4583 294.424 38.9212C293.92 39.3737 293.102 39.6 291.97 39.6H288.53ZM296.553 39.6V31.3303H297.91V39.6H296.553ZM291.847 38.5046C292.433 38.5046 292.912 38.4069 293.282 38.2114C293.652 38.0057 293.837 37.6509 293.837 37.1469C293.837 36.6429 293.668 36.3034 293.328 36.1286C292.989 35.9434 292.5 35.8509 291.862 35.8509H289.888V38.5046H291.847Z" fill="black"/>
<path d="M307.234 27.9052C307.162 28.6766 306.9 29.2629 306.447 29.664C306.005 30.0549 305.295 30.2503 304.318 30.2503C303.31 30.2503 302.595 30.0549 302.174 29.664C301.762 29.2732 301.531 28.6869 301.479 27.9052H302.744C302.796 28.4606 302.94 28.836 303.176 29.0314C303.423 29.2166 303.814 29.3092 304.349 29.3092C304.822 29.3092 305.192 29.2114 305.46 29.016C305.738 28.8103 305.902 28.44 305.954 27.9052H307.234ZM301.819 36.3754C301.819 36.4989 301.814 36.684 301.803 36.9309C301.793 37.1777 301.778 37.4246 301.757 37.6714C301.747 37.9183 301.736 38.1137 301.726 38.2577L306.154 31.3303H307.82V39.6H306.555V34.7246C306.555 34.56 306.555 34.344 306.555 34.0766C306.566 33.8092 306.576 33.5469 306.586 33.2897C306.596 33.0223 306.607 32.8217 306.617 32.688L302.22 39.6H300.538V31.3303H301.819V36.3754Z" fill="black"/>
<path d="M323.332 31.3303V39.6H322.113V34.3234C322.113 34.1074 322.118 33.8812 322.128 33.6446C322.149 33.408 322.169 33.1766 322.19 32.9503H322.144L319.444 39.6H318.302L315.679 32.9503H315.633C315.664 33.4132 315.679 33.8863 315.679 34.3697V39.6H314.46V31.3303H316.265L318.873 37.98L321.526 31.3303H323.332Z" fill="black"/>
<path d="M333.161 35.4497C333.161 36.8177 332.811 37.8772 332.112 38.628C331.423 39.3789 330.487 39.7543 329.304 39.7543C328.574 39.7543 327.92 39.5897 327.344 39.2606C326.779 38.9212 326.331 38.4326 326.002 37.7949C325.673 37.1469 325.508 36.3652 325.508 35.4497C325.508 34.0817 325.853 33.0274 326.542 32.2869C327.231 31.5463 328.167 31.176 329.35 31.176C330.101 31.176 330.759 31.3457 331.325 31.6852C331.901 32.0143 332.348 32.4977 332.667 33.1354C332.996 33.7629 333.161 34.5343 333.161 35.4497ZM326.912 35.4497C326.912 36.4269 327.103 37.2034 327.483 37.7794C327.874 38.3452 328.491 38.628 329.335 38.628C330.168 38.628 330.78 38.3452 331.171 37.7794C331.562 37.2034 331.757 36.4269 331.757 35.4497C331.757 34.4726 331.562 33.7063 331.171 33.1509C330.78 32.5954 330.163 32.3177 329.319 32.3177C328.476 32.3177 327.864 32.5954 327.483 33.1509C327.103 33.7063 326.912 34.4726 326.912 35.4497Z" fill="black"/>
<path d="M336.67 31.3303V34.7709H341.16V31.3303H342.518V39.6H341.16V35.9126H336.67V39.6H335.313V31.3303H336.67Z" fill="black"/>
<path d="M346.417 36.3754C346.417 36.4989 346.412 36.684 346.402 36.9309C346.391 37.1777 346.376 37.4246 346.355 37.6714C346.345 37.9183 346.335 38.1137 346.324 38.2577L350.752 31.3303H352.419V39.6H351.154V34.7246C351.154 34.56 351.154 34.344 351.154 34.0766C351.164 33.8092 351.174 33.5469 351.184 33.2897C351.195 33.0223 351.205 32.8217 351.215 32.688L346.818 39.6H345.136V31.3303H346.417V36.3754Z" fill="black"/>
<path d="M360.759 32.472H358.059V39.6H356.717V32.472H354.048V31.3303H360.759V32.472Z" fill="black"/>
<path d="M369.427 35.4497C369.427 36.8177 369.077 37.8772 368.378 38.628C367.689 39.3789 366.753 39.7543 365.57 39.7543C364.84 39.7543 364.187 39.5897 363.611 39.2606C363.045 38.9212 362.597 38.4326 362.268 37.7949C361.939 37.1469 361.775 36.3652 361.775 35.4497C361.775 34.0817 362.119 33.0274 362.808 32.2869C363.497 31.5463 364.433 31.176 365.616 31.176C366.367 31.176 367.025 31.3457 367.591 31.6852C368.167 32.0143 368.615 32.4977 368.933 33.1354C369.263 33.7629 369.427 34.5343 369.427 35.4497ZM363.179 35.4497C363.179 36.4269 363.369 37.2034 363.749 37.7794C364.14 38.3452 364.757 38.628 365.601 38.628C366.434 38.628 367.046 38.3452 367.437 37.7794C367.828 37.2034 368.023 36.4269 368.023 35.4497C368.023 34.4726 367.828 33.7063 367.437 33.1509C367.046 32.5954 366.429 32.3177 365.585 32.3177C364.742 32.3177 364.13 32.5954 363.749 33.1509C363.369 33.7063 363.179 34.4726 363.179 35.4497Z" fill="black"/>
<path d="M375.513 31.176C376.532 31.176 377.349 31.5309 377.966 32.2406C378.594 32.9503 378.908 34.02 378.908 35.4497C378.908 36.8589 378.594 37.9286 377.966 38.6589C377.349 39.3892 376.526 39.7543 375.498 39.7543C374.86 39.7543 374.33 39.636 373.909 39.3994C373.497 39.1526 373.173 38.8697 372.937 38.5509H372.844C372.865 38.7257 372.885 38.9469 372.906 39.2143C372.926 39.4817 372.937 39.7132 372.937 39.9086V43.3029H371.579V31.3303H372.69L372.875 32.4566H372.937C373.184 32.0966 373.508 31.7932 373.909 31.5463C374.31 31.2994 374.845 31.176 375.513 31.176ZM375.266 32.3177C374.423 32.3177 373.826 32.5543 373.477 33.0274C373.137 33.5006 372.957 34.2206 372.937 35.1874V35.4497C372.937 36.468 373.101 37.2549 373.43 37.8103C373.77 38.3554 374.392 38.628 375.297 38.628C375.801 38.628 376.213 38.4892 376.532 38.2114C376.861 37.9337 377.102 37.5583 377.257 37.0852C377.421 36.6017 377.504 36.0514 377.504 35.4343C377.504 34.488 377.318 33.732 376.948 33.1663C376.588 32.6006 376.028 32.3177 375.266 32.3177Z" fill="black"/>
<path d="M382.352 36.3754C382.352 36.4989 382.347 36.684 382.336 36.9309C382.326 37.1777 382.311 37.4246 382.29 37.6714C382.28 37.9183 382.269 38.1137 382.259 38.2577L386.687 31.3303H388.353V39.6H387.088V34.7246C387.088 34.56 387.088 34.344 387.088 34.0766C387.099 33.8092 387.109 33.5469 387.119 33.2897C387.129 33.0223 387.14 32.8217 387.15 32.688L382.753 39.6H381.071V31.3303H382.352V36.3754Z" fill="black"/>
<path d="M392.343 31.3303V34.7709H396.833V31.3303H398.19V39.6H396.833V35.9126H392.343V39.6H390.985V31.3303H392.343Z" fill="black"/>
<path d="M405.854 31.3303V32.472H402.167V39.6H400.809V31.3303H405.854Z" fill="black"/>
<path d="M414.523 35.4497C414.523 36.8177 414.173 37.8772 413.473 38.628C412.784 39.3789 411.848 39.7543 410.665 39.7543C409.935 39.7543 409.282 39.5897 408.706 39.2606C408.14 38.9212 407.693 38.4326 407.364 37.7949C407.035 37.1469 406.87 36.3652 406.87 35.4497C406.87 34.0817 407.215 33.0274 407.904 32.2869C408.593 31.5463 409.529 31.176 410.712 31.176C411.463 31.176 412.121 31.3457 412.687 31.6852C413.263 32.0143 413.71 32.4977 414.029 33.1354C414.358 33.7629 414.523 34.5343 414.523 35.4497ZM408.274 35.4497C408.274 36.4269 408.464 37.2034 408.845 37.7794C409.236 38.3452 409.853 38.628 410.696 38.628C411.529 38.628 412.141 38.3452 412.532 37.7794C412.923 37.2034 413.119 36.4269 413.119 35.4497C413.119 34.4726 412.923 33.7063 412.532 33.1509C412.141 32.5954 411.524 32.3177 410.681 32.3177C409.837 32.3177 409.225 32.5954 408.845 33.1509C408.464 33.7063 408.274 34.4726 408.274 35.4497Z" fill="black"/>
<path d="M423.324 33.4132C423.324 33.9274 423.17 34.3286 422.861 34.6166C422.553 34.9046 422.157 35.1 421.673 35.2029V35.2646C422.188 35.3366 422.635 35.5217 423.016 35.82C423.396 36.108 423.586 36.5606 423.586 37.1777C423.586 37.8772 423.324 38.4583 422.8 38.9212C422.285 39.3737 421.432 39.6 420.238 39.6H416.674V31.3303H420.223C420.809 31.3303 421.334 31.3972 421.797 31.5309C422.27 31.6543 422.64 31.8703 422.908 32.1789C423.185 32.4772 423.324 32.8886 423.324 33.4132ZM421.951 33.5829C421.951 33.192 421.807 32.9092 421.519 32.7343C421.241 32.5492 420.784 32.4566 420.146 32.4566H418.032V34.7246H419.899C421.267 34.7246 421.951 34.344 421.951 33.5829ZM422.182 37.1777C422.182 36.7046 422.002 36.3652 421.642 36.1594C421.282 35.9537 420.753 35.8509 420.053 35.8509H418.032V38.5046H420.084C420.763 38.5046 421.282 38.4069 421.642 38.2114C422.002 38.0057 422.182 37.6612 422.182 37.1777Z" fill="black"/>
<path d="M425.564 39.6V31.3303H426.922V34.7246H429.066C430.136 34.7246 430.928 34.92 431.442 35.3109C431.956 35.7017 432.214 36.288 432.214 37.0697C432.214 37.8412 431.962 38.4583 431.458 38.9212C430.954 39.3737 430.136 39.6 429.004 39.6H425.564ZM433.587 39.6V31.3303H434.944V39.6H433.587ZM428.881 38.5046C429.467 38.5046 429.946 38.4069 430.316 38.2114C430.686 38.0057 430.871 37.6509 430.871 37.1469C430.871 36.6429 430.702 36.3034 430.362 36.1286C430.023 35.9434 429.534 35.8509 428.896 35.8509H426.922V38.5046H428.881Z" fill="black"/>
<path d="M444.268 27.9052C444.196 28.6766 443.934 29.2629 443.481 29.664C443.039 30.0549 442.329 30.2503 441.352 30.2503C440.344 30.2503 439.629 30.0549 439.208 29.664C438.796 29.2732 438.565 28.6869 438.513 27.9052H439.779C439.83 28.4606 439.974 28.836 440.211 29.0314C440.457 29.2166 440.848 29.3092 441.383 29.3092C441.856 29.3092 442.227 29.2114 442.494 29.016C442.772 28.8103 442.936 28.44 442.988 27.9052H444.268ZM438.853 36.3754C438.853 36.4989 438.848 36.684 438.837 36.9309C438.827 37.1777 438.812 37.4246 438.791 37.6714C438.781 37.9183 438.771 38.1137 438.76 38.2577L443.188 31.3303H444.855V39.6H443.589V34.7246C443.589 34.56 443.589 34.344 443.589 34.0766C443.6 33.8092 443.61 33.5469 443.62 33.2897C443.631 33.0223 443.641 32.8217 443.651 32.688L439.254 39.6H437.572V31.3303H438.853V36.3754Z" fill="black"/>
<path d="M259.416 63.5554H258.089V60.6857H251.254V52.416H252.612V59.544H256.886V52.416H258.243V59.5594H259.416V63.5554Z" fill="black"/>
<path d="M264.196 52.2617C264.906 52.2617 265.513 52.416 266.017 52.7246C266.531 53.0332 266.922 53.4703 267.189 54.036C267.467 54.5914 267.606 55.2446 267.606 55.9954V56.8132H261.944C261.964 57.7492 262.201 58.464 262.653 58.9577C263.116 59.4412 263.759 59.6829 264.582 59.6829C265.106 59.6829 265.569 59.6366 265.97 59.544C266.382 59.4412 266.804 59.2972 267.236 59.112V60.3C266.814 60.4852 266.397 60.6189 265.986 60.7012C265.574 60.7937 265.086 60.84 264.52 60.84C263.738 60.84 263.044 60.6806 262.437 60.3617C261.841 60.0429 261.373 59.5697 261.033 58.9423C260.704 58.3046 260.54 57.528 260.54 56.6126C260.54 55.7074 260.689 54.9309 260.987 54.2829C261.296 53.6349 261.722 53.136 262.268 52.7863C262.823 52.4366 263.466 52.2617 264.196 52.2617ZM264.181 53.3726C263.533 53.3726 263.018 53.5834 262.638 54.0052C262.268 54.4166 262.046 54.9926 261.974 55.7332H266.186C266.176 55.0337 266.012 54.468 265.693 54.036C265.374 53.5937 264.87 53.3726 264.181 53.3726Z" fill="black"/>
<path d="M271.069 52.416V55.8566H275.559V52.416H276.916V60.6857H275.559V56.9983H271.069V60.6857H269.711V52.416H271.069Z" fill="black"/>
<path d="M285.243 53.5577H282.543V60.6857H281.201V53.5577H278.532V52.416H285.243V53.5577Z" fill="black"/>
<path d="M290.807 52.2617C291.825 52.2617 292.643 52.6166 293.26 53.3263C293.887 54.036 294.201 55.1057 294.201 56.5354C294.201 57.9446 293.887 59.0143 293.26 59.7446C292.643 60.4749 291.82 60.84 290.791 60.84C290.154 60.84 289.624 60.7217 289.202 60.4852C288.791 60.2383 288.467 59.9554 288.23 59.6366H288.138C288.158 59.8114 288.179 60.0326 288.199 60.3C288.22 60.5674 288.23 60.7989 288.23 60.9943V64.3886H286.872V52.416H287.983L288.168 53.5423H288.23C288.477 53.1823 288.801 52.8789 289.202 52.632C289.603 52.3852 290.138 52.2617 290.807 52.2617ZM290.56 53.4034C289.716 53.4034 289.12 53.64 288.77 54.1132C288.431 54.5863 288.251 55.3063 288.23 56.2732V56.5354C288.23 57.5537 288.395 58.3406 288.724 58.896C289.063 59.4412 289.686 59.7137 290.591 59.7137C291.095 59.7137 291.506 59.5749 291.825 59.2972C292.154 59.0194 292.396 58.644 292.55 58.1709C292.715 57.6874 292.797 57.1372 292.797 56.52C292.797 55.5737 292.612 54.8177 292.242 54.252C291.882 53.6863 291.321 53.4034 290.56 53.4034Z" fill="black"/>
</svg>
