<svg width="70" height="24" viewBox="0 0 70 24" fill="none" xmlns="http://www.w3.org/2000/svg">
<path d="M17.2143 0L11.3571 14.2857L5.46429 0H0L10.5357 24H12.1429L22.6429 0H17.2143Z" fill="black"/>
<path d="M25.8619 23.5714H30.6833V0H25.8619V23.5714Z" fill="black"/>
<path d="M37.3666 24C41.8666 24 44.5452 21.8571 44.5452 17.2857V0H39.7238V16.7857C39.7238 18.8929 38.6166 19.6071 36.3309 19.6071C35.7238 19.6071 34.9381 19.5357 33.9738 19.4643V23.5714C34.9738 23.8214 36.1166 24 37.3666 24Z" fill="black"/>
<path d="M59.7478 24C65.462 24 69.7478 20.1429 69.7478 13.8214V0H64.9263V14.1786C64.9263 17.7143 62.712 19.5357 59.7478 19.5357C56.8192 19.5357 54.5692 17.7143 54.5692 14.1786V0H49.7478V13.8214C49.7478 20.1429 53.9978 24 59.7478 24Z" fill="black"/>
</svg>
